<?xml version="1.0" standalone="no"?>
<!DOCTYPE svg PUBLIC "-//W3C//DTD SVG 20010904//EN"
 "http://www.w3.org/TR/2001/REC-SVG-20010904/DTD/svg10.dtd">
<svg version="1.0" xmlns="http://www.w3.org/2000/svg"
 width="500.000000pt" height="500.000000pt" viewBox="0 0 500.000000 500.000000"
 preserveAspectRatio="xMidYMid meet">
<metadata>
Created by potrace 1.14, written by Peter Selinger 2001-2017
</metadata>
<g transform="translate(0.000000,500.000000) scale(0.100000,-0.100000)"
fill="#000000" stroke="none">
<path d="M306 4788 c-9 -58 -82 -1492 -106 -2078 -6 -146 -20 -431 -30 -635
-38 -704 -60 -1111 -76 -1388 -9 -153 -13 -284 -11 -291 4 -10 40 -16 134 -20
385 -19 552 -28 783 -41 140 -9 509 -29 820 -45 311 -17 709 -39 885 -50 176
-10 390 -21 475 -25 85 -3 275 -10 423 -16 202 -9 270 -9 281 0 10 8 16 48 20
139 4 70 8 168 11 217 2 50 11 223 19 385 9 162 20 410 26 550 5 140 19 417
30 615 11 198 29 522 40 720 20 363 41 749 60 1080 5 99 14 279 20 400 6 121
12 236 15 256 3 24 0 41 -9 48 -10 8 -144 19 -393 31 -208 11 -457 24 -553 30
-96 5 -472 26 -835 45 -633 34 -663 37 -722 60 -96 38 -186 49 -257 33 l-59
-13 124 0 c118 0 127 -1 176 -29 182 -101 255 -298 180 -484 -39 -98 -110
-169 -210 -211 -50 -21 -77 -26 -142 -25 -107 1 -177 28 -254 100 -191 176
-156 483 70 613 l46 26 -211 2 c-209 3 -569 18 -698 29 l-67 6 -5 -34z m933
-718 c115 -57 242 -62 349 -13 29 13 57 17 106 15 l66 -4 0 -49 c0 -26 -4
-126 -10 -221 -5 -95 -17 -308 -25 -473 -8 -165 -18 -335 -21 -378 l-7 -78
-94 -56 -94 -56 28 -23 c15 -13 54 -42 85 -66 l58 -43 -6 -95 c-3 -52 -18
-358 -35 -679 -16 -322 -31 -586 -33 -588 -4 -4 -419 27 -424 32 -1 1 2 83 8
181 5 99 17 305 25 459 8 154 17 321 20 370 3 50 19 329 35 620 16 292 32 575
35 631 l7 101 -63 6 c-34 4 -104 7 -156 7 l-94 0 5 53 c3 28 11 125 18 215
l12 162 73 0 c62 0 83 -5 132 -30z m2019 -77 c83 -3 156 -9 163 -13 11 -8 -4
-426 -31 -820 -6 -80 -19 -325 -30 -545 -35 -677 -70 -1317 -76 -1383 l-7 -64
-41 6 c-22 3 -119 8 -214 12 l-174 7 6 81 c6 80 29 545 41 821 4 77 9 189 13
248 4 60 5 110 2 112 -3 1 -81 6 -175 10 -292 12 -263 3 -424 130 -77 61 -140
112 -140 115 -1 4 23 19 53 35 29 17 104 60 165 97 l112 67 219 -11 c121 -7
222 -10 224 -7 5 4 56 990 56 1072 l0 37 53 0 c30 0 122 -3 205 -7z m-1128
-1073 c146 -11 276 -20 290 -20 18 0 -20 -27 -127 -91 -84 -50 -153 -94 -152
-97 0 -4 59 -54 130 -110 72 -57 129 -106 126 -108 -3 -3 -132 5 -288 16
l-284 21 -41 32 c-22 18 -83 66 -136 107 -53 41 -97 78 -97 82 -1 7 298 188
309 188 3 0 124 -9 270 -20z"/>
<path d="M1343 4736 c-54 -18 -100 -47 -141 -89 l-33 -34 42 -7 43 -7 -25 -17
c-14 -9 -24 -23 -22 -29 3 -7 -1 -13 -7 -13 -7 0 -14 8 -17 19 -3 13 -11 17
-24 14 -20 -6 -25 -18 -9 -28 10 -6 2 -36 -14 -47 -8 -6 -6 -11 4 -19 12 -8
11 -9 -5 -5 -18 5 -20 1 -19 -42 2 -81 4 -90 20 -107 9 -9 14 -19 11 -22 -4
-3 -2 -14 4 -24 7 -14 17 -17 42 -13 24 4 28 3 17 -5 -8 -6 -10 -11 -5 -11 6
0 16 5 22 11 17 17 40 -48 25 -72 -10 -16 -5 -21 42 -44 66 -32 147 -42 215
-25 28 6 51 13 51 13 0 1 -7 20 -15 42 -8 22 -14 59 -15 83 0 28 -5 45 -14 48
-8 3 -22 16 -30 29 -15 22 -14 27 3 57 15 27 23 32 47 30 16 -2 31 -8 32 -13
2 -5 9 -9 17 -9 7 0 18 -7 25 -15 7 -8 20 -15 29 -15 9 0 23 -5 31 -10 12 -7
12 -12 2 -22 -6 -6 -12 -21 -12 -31 0 -10 -9 -21 -20 -24 -11 -3 -20 -14 -20
-25 0 -10 -12 -30 -26 -43 -18 -17 -24 -30 -19 -44 3 -12 11 -21 16 -21 6 0
37 26 68 58 75 74 105 148 98 240 -9 116 -87 227 -195 274 -58 26 -162 33
-219 14z m170 -63 c-16 -12 -16 -13 0 -13 10 0 20 7 23 15 4 8 10 15 16 15 5
0 6 -5 2 -11 -4 -8 -1 -8 13 -1 27 15 65 4 61 -17 -2 -9 -10 -16 -18 -16 -8 0
-14 6 -12 13 3 16 2 16 -54 -8 -43 -19 -46 -22 -28 -34 21 -16 44 -10 44 10 0
8 7 14 15 14 8 0 15 -5 15 -11 0 -5 4 -8 9 -4 11 6 25 -12 26 -37 1 -15 -1
-15 -18 -3 -18 13 -24 9 -71 -38 -39 -39 -59 -52 -81 -52 -24 0 -31 -5 -33
-24 -3 -19 0 -23 14 -17 10 4 21 1 26 -6 15 -24 8 -27 -29 -14 -26 9 -44 23
-56 47 -11 21 -15 25 -11 10 4 -14 2 -21 -4 -17 -18 11 -23 72 -8 101 21 39
11 55 -35 55 -21 0 -39 4 -39 8 0 14 79 44 100 37 11 -4 42 -8 68 -9 26 -2 41
-1 35 1 -25 9 -13 22 17 20 27 -2 28 -3 13 -14z m-269 -371 c5 -3 1 -9 -8 -14
-11 -6 -22 -3 -38 12 l-23 21 30 -7 c17 -4 34 -9 39 -12z m71 -143 c-10 -15
-25 -10 -19 6 4 8 10 12 15 9 5 -3 7 -10 4 -15z"/>
</g>
</svg>
