<?xml version="1.0" standalone="no"?>
<!DOCTYPE svg PUBLIC "-//W3C//DTD SVG 20010904//EN"
 "http://www.w3.org/TR/2001/REC-SVG-20010904/DTD/svg10.dtd">
<svg version="1.0" xmlns="http://www.w3.org/2000/svg"
 width="200.000000pt" height="200.000000pt" viewBox="0 0 200.000000 200.000000"
 preserveAspectRatio="xMidYMid meet">
<metadata>
Created by potrace 1.14, written by Peter Selinger 2001-2017
</metadata>
<g transform="translate(0.000000,200.000000) scale(0.100000,-0.100000)"
fill="#000000" stroke="none">
<path d="M240 1915 c-10 -11 -4 -21 29 -54 23 -22 52 -62 66 -87 l25 -47 0
-735 0 -735 -22 -36 c-12 -20 -41 -55 -65 -79 -39 -40 -47 -62 -22 -62 16 0
93 83 117 127 l22 41 -2 754 c-3 849 4 772 -83 878 -45 55 -47 56 -65 35z"/>
<path d="M650 1917 c0 -4 22 -32 49 -60 57 -61 101 -144 91 -172 -3 -11 -4
-31 -2 -45 3 -21 11 -353 12 -542 l0 -48 219 0 220 0 0 223 c1 289 9 461 21
465 6 2 8 8 4 13 -3 5 0 9 5 9 6 0 10 3 9 8 -4 13 21 49 67 97 26 26 43 50 40
53 -10 10 -735 9 -735 -1z"/>
<path d="M1739 1881 c-91 -97 -84 -27 -87 -877 -3 -845 -8 -787 76 -872 46
-47 62 -55 78 -39 9 9 -39 57 -56 57 -6 0 -8 5 -5 10 3 6 2 10 -4 10 -6 0 -22
20 -36 43 l-25 44 0 733 0 733 23 45 c12 25 41 65 65 89 41 42 48 63 26 70 -5
2 -30 -19 -55 -46z"/>
<path d="M799 716 c0 -67 0 -165 0 -218 0 -54 -4 -100 -8 -103 -5 -2 -6 -21
-3 -42 8 -55 6 -94 -4 -102 -5 -3 -18 -23 -29 -43 -10 -21 -21 -35 -23 -33 -2
2 -16 -7 -30 -21 -15 -13 -30 -24 -33 -24 -9 0 -19 -40 -11 -41 4 0 164 -1
355 -1 384 -1 397 1 341 51 -17 16 -35 30 -40 32 -5 2 -22 24 -39 48 -25 37
-30 54 -31 115 -1 39 -3 80 -3 91 -1 25 -2 82 -4 265 l-2 145 -217 1 -218 1
-1 -121z"/>
</g>
</svg>
