<?xml version="1.0" standalone="no"?>
<!DOCTYPE svg PUBLIC "-//W3C//DTD SVG 20010904//EN"
 "http://www.w3.org/TR/2001/REC-SVG-20010904/DTD/svg10.dtd">
<svg version="1.0" xmlns="http://www.w3.org/2000/svg"
 width="184.000000pt" height="184.000000pt" viewBox="0 0 184.000000 184.000000"
 preserveAspectRatio="xMidYMid meet">
<metadata>
Created by potrace 1.14, written by Peter Selinger 2001-2017
</metadata>
<g transform="translate(0.000000,184.000000) scale(0.100000,-0.100000)"
fill="#000000" stroke="none">
<path d="M40 1443 c0 -5 15 -33 33 -63 38 -62 138 -252 250 -473 l75 -148 -3
-157 c-2 -109 -7 -168 -17 -192 l-15 -35 119 0 c65 0 118 1 118 2 0 1 -5 14
-11 30 -6 15 -13 101 -16 190 -4 138 -2 168 13 200 31 70 126 258 135 268 5 5
9 17 9 27 0 10 4 18 10 18 6 0 9 -119 7 -332 -2 -292 -5 -337 -20 -367 -9 -19
-17 -35 -17 -35 0 -1 92 -1 204 -1 l204 0 -16 30 c-12 24 -16 71 -18 238 l-3
207 260 0 259 0 1 -102 c1 -209 -6 -327 -21 -342 -26 -26 -8 -31 98 -30 59 1
113 2 120 3 9 1 8 9 -4 33 -15 30 -17 81 -17 493 0 384 3 467 16 503 l15 42
-120 0 c-110 0 -120 -1 -113 -17 19 -47 22 -81 24 -244 l2 -175 -259 -2 -259
-2 1 187 c1 152 5 194 18 220 l16 33 -209 0 c-157 -1 -209 -4 -210 -13 -3 -40
-13 -76 -40 -135 -43 -94 -159 -325 -168 -335 -11 -11 -193 359 -206 418 -16
70 -6 65 -131 65 -63 0 -114 -3 -114 -7z"/>
</g>
</svg>
